<?xml version="1.0" encoding="UTF-8"?>
<svg id="Layer_2" data-name="Layer 2" xmlns="http://www.w3.org/2000/svg" viewBox="0 0 547.14 299.56">
  <defs>
    <style>
      .cls-1 {
        fill: #fff;
      }

      .cls-2 {
        fill: #f68428;
      }
    </style>
  </defs>
  <g id="Layer_1-2" data-name="Layer 1">
    <g>
      <path d="m311.49,195.36l-5.2-32.65L462.54,0h-141.38l-45.4,48.64L296.14,0H15.21l-6.44,8.52c-2.29,3.03-21.04,30.14,4.56,73.57-5.3,15.77-7.11,41.45,9.79,65.84-4.95,17.04-6.47,44.25,10.38,66.79-5.38,17.59-7.11,48,13.22,75.98l6.43,8.85h118.46l36.23-86.61,17.09,86.61h278.44l43.78-104.2h-235.65Zm189.5,100.62H227.86l-18.8-95.25-39.85,95.25H54.96l-5.36-7.37c-22.68-31.21-15.78-62.98-12.08-74.5-20.04-25.12-13.9-55.17-10.42-66.73-19.82-27.19-13.73-54.34-9.78-65.58C-8.44,39.47,9.45,13.55,11.62,10.68l5.37-7.1h273.77l-26.03,62.12L322.71,3.58h131.44l-151.67,157.94,5.97,37.42h233.32l-40.77,97.04Z"/>
      <path class="cls-1" d="m308.44,198.94l-5.97-37.42L454.14,3.58h-131.44l-57.98,62.12,26.03-62.12H16.99l-5.37,7.1c-2.17,2.87-20.06,28.8,5.7,71.12-3.95,11.24-10.04,38.39,9.78,65.58-3.48,11.56-9.61,41.62,10.42,66.73-3.7,11.52-10.6,43.29,12.08,74.5l5.36,7.37h114.26l39.85-95.25,18.8,95.25h273.12l40.77-97.04h-233.32Zm187.79,89.89H233.74l-22.21-112.53-47.08,112.53H58.6l-3.21-4.42c-24.94-34.33-10.87-69.11-9.73-71.77-24.12-26.49-12.7-60.94-10.58-66.6-23.3-28.96-12.69-58.37-9.81-65.01l-.31-.49C-.98,40.07,16.57,16,17.33,14.99l3.22-4.26h259.46l-37.33,89.08L325.81,10.73h111.54l-142.51,148.4,7.49,46.96h228.66l-34.76,82.73Z"/>
      <path d="m302.34,206.09l-7.49-46.96L437.36,10.73h-111.54l-83.14,89.08,37.33-89.08H20.55l-3.22,4.26c-.76,1.01-18.3,25.08,7.63,65.54l.31.49c-2.88,6.64-13.49,36.05,9.81,65.01-2.12,5.66-13.54,40.11,10.58,66.6-1.14,2.67-15.21,37.44,9.73,71.77l3.21,4.42h105.85l47.08-112.53,22.21,112.53h262.49l34.76-82.73h-228.66Zm186.77,72h-246.54l-24.2-122.62-9.74-.03-51.31,122.65h-93.24c-22.08-30.39-8.54-61.27-8.54-61.27h52.99l4.48-10.66h-58.7c-22.52-23.73-9-56.83-9-56.83h91.58l4.19-9.77H43.65c-22.18-27.28-8.18-55.06-8.18-55.06h128.64l4.12-9.77H33.99C11.79,40.11,25.89,21.46,25.89,21.46h237.99l-39.07,93.24,18.75-.1,86.93-93.14h81.7l-128.76,134.09,9.77,61.27h221.67l-25.75,61.27Z"/>
      <path class="cls-2" d="m293.18,216.82l-9.77-61.27L412.18,21.46h-81.7l-86.93,93.14-18.75.1,39.07-93.24H25.89s-14.09,18.65,8.11,53.28h134.24l-4.12,9.77H35.48s-14,27.78,8.18,55.06h97.42l-4.19,9.77H45.3s-13.52,33.1,9,56.83h58.7l-4.48,10.66h-52.99s-13.54,30.88,8.54,61.27h93.24l51.31-122.65,9.74.03,24.2,122.62h246.54l25.75-61.27h-221.67Zm-.69,51.21l-5.73-22.36-8.74,7.98-5.16,14.38h-4.69l15.84-44.09h4.69l-7.6,21.15,22.89-21.15h6.59l-19.63,17.92,6.75,26.18h-5.2Zm8.99,0l15.88-44.09h4.69l-15.88,44.09h-4.69Zm36.1,0l-3.66-25.45c-.64-4.54-1.05-8.51-1.26-11.91-.77,2.87-1.9,6.39-3.41,10.56l-9.64,26.8h-4.53l15.83-44.09h4.56l2.62,16.57c.78,4.86,1.34,8.93,1.68,12.21.25,2.27.44,5.14.56,8.63,1.18-3.79,2.46-7.62,3.83-11.5l9.39-25.92h4.53l-15.88,44.09h-4.62Zm40.95-6.91c-1.89,2.56-3.98,4.48-6.25,5.75-2.27,1.27-4.67,1.9-7.19,1.9-3.88,0-6.71-1.16-8.51-3.46-1.8-2.31-2.32-5.42-1.56-9.32.3-1.56,1.15-4.23,2.53-8l8.62-24.06h4.66l-9.73,27.1c-.81,2.25-1.31,3.92-1.53,5.02-.44,2.27-.08,4.14,1.09,5.62,1.16,1.48,2.89,2.22,5.18,2.22,3.02,0,5.73-1.28,8.13-3.85,1.84-1.97,3.82-5.91,5.97-11.85l8.73-24.27h4.69l-9.32,25.87c-1.79,4.98-3.62,8.76-5.52,11.32Zm35.1-33.07c-4.1,0-7.84,2.17-11.22,6.51-3.38,4.34-5.65,9.48-6.8,15.41-.9,4.61-.67,8.09.67,10.42,1.34,2.34,3.39,3.5,6.14,3.5,2.36,0,4.6-.88,6.72-2.65,2.61-2.17,4.7-5.08,6.29-8.75l4.46.81c-2.48,5.17-5.39,9.04-8.73,11.61-3.34,2.57-6.69,3.85-10.06,3.85-4.13,0-7.15-1.59-9.08-4.78-1.93-3.19-2.28-7.9-1.07-14.14,1.42-7.28,4.21-13.43,8.39-18.47,4.53-5.48,9.55-8.21,15.05-8.21,3.52,0,6.24,1.21,8.14,3.64,1.9,2.42,2.61,5.83,2.12,10.22l-4.46.51c.32-6.34-1.86-9.5-6.57-9.5Zm31.14,39.97l-5.73-22.36-8.74,7.98-5.16,14.38h-4.69l15.84-44.09h4.69l-7.6,21.15,22.89-21.15h6.59l-19.63,17.92,6.75,26.18h-5.2Zm43.46-32.52l-.21.93-4.62.45.22-.99c.28-1.43.19-2.76-.26-3.99-.45-1.23-1.25-2.18-2.39-2.85s-2.55-1.01-4.22-1.01c-2.38,0-4.35.6-5.92,1.81-1.56,1.21-2.53,2.8-2.92,4.77-.35,1.79-.12,3.17.69,4.13.81.97,2.97,2.55,6.5,4.76,2.57,1.62,4.28,2.94,5.13,3.95.85,1.01,1.42,2.23,1.72,3.64.3,1.41.28,3-.07,4.77-.72,3.69-2.57,6.76-5.55,9.22-2.98,2.46-6.5,3.68-10.55,3.68-4.38,0-7.47-1.21-9.27-3.62-1.8-2.42-2.2-6.21-1.22-11.39l4.67-.54-.32,1.48c-.38,1.97-.34,3.72.14,5.25.35,1.17,1.16,2.12,2.4,2.85s2.83,1.1,4.75,1.1c2.66,0,4.91-.73,6.74-2.18,1.84-1.46,2.97-3.27,3.39-5.44.3-1.53.12-2.85-.55-3.98-.69-1.1-2.53-2.57-5.52-4.39-2.32-1.42-3.87-2.5-4.66-3.22-1.42-1.3-2.38-2.74-2.88-4.32-.49-1.58-.54-3.37-.15-5.4.69-3.53,2.33-6.37,4.93-8.54,2.6-2.17,5.8-3.25,9.6-3.25,2.62,0,4.76.51,6.42,1.53,1.66,1.02,2.85,2.51,3.56,4.48.71,1.97.85,4.07.41,6.32Z"/>
      <polygon points="310.57 223.94 303.99 223.94 281.09 245.09 288.69 223.94 284 223.94 268.16 268.03 272.85 268.03 278.02 253.65 286.76 245.68 292.49 268.03 297.69 268.03 290.94 241.86 310.57 223.94"/>
      <polygon points="317.36 223.94 301.48 268.03 306.17 268.03 322.05 223.94 317.36 223.94"/>
      <path d="m353.55,223.94l-9.39,25.92c-1.37,3.87-2.64,7.71-3.83,11.5-.13-3.49-.31-6.36-.56-8.63-.34-3.28-.9-7.35-1.68-12.21l-2.62-16.57h-4.56l-15.83,44.09h4.53l9.64-26.8c1.5-4.17,2.64-7.69,3.41-10.56.2,3.4.62,7.37,1.26,11.91l3.66,25.45h4.62l15.88-44.09h-4.53Z"/>
      <path d="m388.69,223.94l-8.73,24.27c-2.14,5.94-4.13,9.88-5.97,11.85-2.4,2.57-5.11,3.85-8.13,3.85-2.29,0-4.01-.74-5.18-2.22-1.16-1.48-1.53-3.36-1.09-5.62.21-1.1.72-2.78,1.53-5.02l9.73-27.1h-4.66l-8.62,24.06c-1.38,3.77-2.23,6.43-2.53,8-.76,3.9-.24,7.01,1.56,9.32,1.8,2.31,4.63,3.46,8.51,3.46,2.52,0,4.91-.64,7.19-1.9,2.27-1.27,4.36-3.19,6.25-5.75,1.89-2.56,3.73-6.33,5.52-11.32l9.32-25.87h-4.69Z"/>
      <path d="m424.66,237.05c.49-4.39-.22-7.8-2.12-10.22-1.9-2.43-4.61-3.64-8.14-3.64-5.5,0-10.52,2.73-15.05,8.21-4.18,5.03-6.97,11.19-8.39,18.47-1.21,6.23-.86,10.95,1.07,14.14,1.93,3.19,4.95,4.78,9.08,4.78,3.37,0,6.72-1.28,10.06-3.85,3.34-2.57,6.25-6.44,8.73-11.61l-4.46-.81c-1.58,3.67-3.68,6.58-6.29,8.75-2.12,1.77-4.37,2.65-6.72,2.65-2.75,0-4.79-1.17-6.14-3.5-1.34-2.34-1.57-5.81-.67-10.42,1.16-5.93,3.42-11.07,6.8-15.41,3.38-4.34,7.12-6.51,11.22-6.51,4.7,0,6.89,3.17,6.57,9.5l4.46-.51Z"/>
      <polygon points="462.86 223.94 456.27 223.94 433.38 245.09 440.97 223.94 436.29 223.94 420.45 268.03 425.14 268.03 430.3 253.65 439.04 245.68 444.78 268.03 449.97 268.03 443.22 241.86 462.86 223.94"/>
      <path d="m484.27,224.72c-1.66-1.02-3.8-1.53-6.42-1.53-3.8,0-7,1.08-9.6,3.25-2.6,2.17-4.24,5.01-4.93,8.54-.39,2.03-.34,3.82.15,5.4.49,1.58,1.45,3.01,2.88,4.32.79.72,2.34,1.8,4.66,3.22,3,1.83,4.84,3.29,5.52,4.39.66,1.13.85,2.45.55,3.98-.42,2.17-1.55,3.98-3.39,5.44-1.84,1.46-4.08,2.18-6.74,2.18-1.92,0-3.5-.37-4.75-1.1s-2.04-1.68-2.4-2.85c-.48-1.53-.53-3.28-.14-5.25l.32-1.48-4.67.54c-.99,5.17-.58,8.97,1.22,11.39,1.8,2.41,4.89,3.62,9.27,3.62,4.05,0,7.57-1.23,10.55-3.68,2.98-2.46,4.83-5.53,5.55-9.22.34-1.76.37-3.35.07-4.77-.3-1.41-.87-2.63-1.72-3.64-.85-1.01-2.56-2.33-5.13-3.95-3.52-2.2-5.69-3.79-6.5-4.76-.81-.96-1.04-2.34-.69-4.13.38-1.97,1.36-3.56,2.92-4.77,1.56-1.21,3.53-1.81,5.92-1.81,1.67,0,3.07.34,4.22,1.01s1.95,1.63,2.39,2.85c.45,1.23.53,2.56.26,3.99l-.22.99,4.62-.45.21-.93c.44-2.25.3-4.35-.41-6.32-.71-1.97-1.9-3.46-3.56-4.48Z"/>
    </g>
  </g>
</svg>